<?xml version="1.0" encoding="UTF-8"?>
<!DOCTYPE svg PUBLIC "-//W3C//DTD SVG 1.1//EN" "http://www.w3.org/Graphics/SVG/1.1/DTD/svg11.dtd">
<svg xmlns="http://www.w3.org/2000/svg" version="1.1" width="906px" height="425px" style="shape-rendering:geometricPrecision; text-rendering:geometricPrecision; image-rendering:optimizeQuality; fill-rule:evenodd; clip-rule:evenodd" xmlns:xlink="http://www.w3.org/1999/xlink">
<g><path style="opacity:1" fill="#fefefe" d="M -0.5,-0.5 C 301.5,-0.5 603.5,-0.5 905.5,-0.5C 905.5,141.167 905.5,282.833 905.5,424.5C 603.5,424.5 301.5,424.5 -0.5,424.5C -0.5,282.833 -0.5,141.167 -0.5,-0.5 Z"/></g>
<g><path style="opacity:1" fill="#b96d6a" d="M 575.5,19.5 C 558.358,18.7805 541.358,19.7805 524.5,22.5C 524.611,21.8826 524.944,21.3826 525.5,21C 542.235,17.2119 558.902,16.7119 575.5,19.5 Z"/></g>
<g><path style="opacity:1" fill="#952b28" d="M 575.5,19.5 C 575.649,20.552 575.483,21.552 575,22.5C 559.584,38.5231 543.584,53.8564 527,68.5C 504.575,54.4752 503.742,39.1419 524.5,22.5C 541.358,19.7805 558.358,18.7805 575.5,19.5 Z"/></g>
<g><path style="opacity:1" fill="#d8b1b0" d="M 614.5,30.5 C 611.721,30.2786 609.054,30.612 606.5,31.5C 607.334,30.2521 608.667,29.5854 610.5,29.5C 612.045,29.5108 613.378,29.8442 614.5,30.5 Z"/></g>
<g><path style="opacity:1" fill="#952a27" d="M 614.5,30.5 C 614.842,31.3382 615.508,31.6716 616.5,31.5C 618.395,33.2413 620.728,34.2413 623.5,34.5C 624.514,35.6737 625.847,36.3404 627.5,36.5C 629.033,38.2451 631.033,39.2451 633.5,39.5C 634.899,40.8897 636.566,41.8897 638.5,42.5C 639.11,43.391 639.443,44.391 639.5,45.5C 628.032,56.7998 616.365,67.9665 604.5,79C 600.167,82 595.833,85 591.5,88C 587.959,89.4403 584.292,90.2736 580.5,90.5C 574.797,90.6252 569.13,90.2919 563.5,89.5C 559.219,88.8639 555.219,87.3639 551.5,85C 550.549,84.2825 550.383,83.4491 551,82.5C 568.79,64.5354 587.29,47.5354 606.5,31.5C 609.054,30.612 611.721,30.2786 614.5,30.5 Z"/></g>
<g><path style="opacity:1" fill="#d09998" d="M 616.5,31.5 C 619.272,31.7587 621.605,32.7587 623.5,34.5C 620.728,34.2413 618.395,33.2413 616.5,31.5 Z"/></g>
<g><path style="opacity:1" fill="#ac6966" d="M 486.5,39.5 C 485.849,38.9094 485.182,38.2427 484.5,37.5C 482.929,38.3094 481.262,38.6427 479.5,38.5C 481.396,37.5195 483.396,36.5195 485.5,35.5C 486.429,36.6888 486.762,38.0222 486.5,39.5 Z"/></g>
<g><path style="opacity:1" fill="#d4a3a2" d="M 627.5,36.5 C 629.967,36.7549 631.967,37.7549 633.5,39.5C 631.033,39.2451 629.033,38.2451 627.5,36.5 Z"/></g>
<g><path style="opacity:1" fill="#ce9999" d="M 479.5,38.5 C 478.486,39.6737 477.153,40.3404 475.5,40.5C 476.287,38.8958 477.62,38.2291 479.5,38.5 Z"/></g>
<g><path style="opacity:1" fill="#942926" d="M 486.5,39.5 C 487.614,48.009 490.781,55.6756 496,62.5C 502.041,68.7089 508.208,74.7089 514.5,80.5C 505.646,89.8539 496.313,98.6873 486.5,107C 482.264,110.317 477.598,111.15 472.5,109.5C 471.749,108.427 470.749,108.26 469.5,109C 467.294,111.037 465.294,113.203 463.5,115.5C 477.304,126.43 491.971,136.43 507.5,145.5C 510.317,143.183 512.984,140.683 515.5,138C 512.333,136.167 509.833,133.667 508,130.5C 507.262,127.788 507.929,125.455 510,123.5C 518.684,113.316 528.184,103.983 538.5,95.5C 539.622,96.6302 540.956,97.2969 542.5,97.5C 542.973,98.9063 543.973,99.573 545.5,99.5C 557.862,106.62 571.195,110.954 585.5,112.5C 598.81,111.453 610.81,106.953 621.5,99C 633.869,87.296 646.535,75.9627 659.5,65C 663.858,63.9252 667.858,64.5919 671.5,67C 683.034,79.3654 694.7,91.532 706.5,103.5C 707.911,105.914 709.911,107.581 712.5,108.5C 720.366,116.262 729.366,122.262 739.5,126.5C 741.456,128.548 743.956,129.548 747,129.5C 749.008,129.693 750.508,129.026 751.5,127.5C 759.555,119.114 767.555,110.78 775.5,102.5C 777.587,101.415 778.92,99.7488 779.5,97.5C 780.5,97.5 781.5,97.5 782.5,97.5C 782.5,96.1667 782.5,94.8333 782.5,93.5C 783.833,93.5 785.167,93.5 786.5,93.5C 786.691,90.0173 787.357,86.6839 788.5,83.5C 790.25,82.3406 791.25,80.674 791.5,78.5C 791.5,78.1667 791.5,77.8333 791.5,77.5C 792.222,77.0825 792.722,76.4158 793,75.5C 793.199,68.7282 794.033,62.0615 795.5,55.5C 804.649,34.4695 814.149,34.4695 824,55.5C 824.602,58.2205 824.435,60.8872 823.5,63.5C 821.323,67.3333 819.323,71.3333 817.5,75.5C 813.017,80.2543 813.684,84.2543 819.5,87.5C 819.842,88.3382 820.508,88.6716 821.5,88.5C 822.585,90.5869 824.251,91.9202 826.5,92.5C 829.94,94.0549 833.273,95.8882 836.5,98C 841.744,102.739 846.41,107.905 850.5,113.5C 852.9,116.903 855.9,119.57 859.5,121.5C 863.463,125.964 867.63,130.298 872,134.5C 872.667,137.833 872.667,141.167 872,144.5C 870.846,145.743 869.512,146.743 868,147.5C 867.64,149.421 866.806,151.088 865.5,152.5C 862.205,153.401 858.872,153.401 855.5,152.5C 852.482,152.665 849.482,152.498 846.5,152C 843.204,150.489 839.871,149.323 836.5,148.5C 832.167,146.498 827.5,145.498 822.5,145.5C 818.958,145.813 815.625,145.479 812.5,144.5C 808.019,143.352 803.352,143.185 798.5,144C 797.944,144.383 797.611,144.883 797.5,145.5C 792.5,149.833 787.833,154.5 783.5,159.5C 780.097,161.9 777.43,164.9 775.5,168.5C 769.38,173.733 762.714,178.233 755.5,182C 752.572,184.089 750.239,186.589 748.5,189.5C 743.833,193.5 739.5,197.833 735.5,202.5C 734.167,202.833 732.833,203.167 731.5,203.5C 723.647,203.371 715.814,203.705 708,204.5C 704.053,204.387 700.219,203.72 696.5,202.5C 694.772,201.621 692.939,200.954 691,200.5C 689.301,200.387 688.134,201.053 687.5,202.5C 686.883,202.611 686.383,202.944 686,203.5C 685.121,207.477 685.621,211.144 687.5,214.5C 687.993,216.806 688.326,219.139 688.5,221.5C 688.723,225.162 689.723,228.495 691.5,231.5C 692.75,234.006 693.416,236.673 693.5,239.5C 693.259,241.898 693.926,243.898 695.5,245.5C 696.434,246.568 696.768,247.901 696.5,249.5C 696.768,252.119 696.435,254.619 695.5,257C 697.133,257.48 698.466,258.313 699.5,259.5C 699.449,266.578 700.782,273.245 703.5,279.5C 704.146,284.846 703.312,289.846 701,294.5C 696.283,298.058 691.45,301.392 686.5,304.5C 682.893,305.809 679.226,306.809 675.5,307.5C 676.811,310.154 678.145,312.821 679.5,315.5C 680.08,317.749 681.413,319.415 683.5,320.5C 686.883,324.553 689.883,328.886 692.5,333.5C 692.427,335.027 693.094,336.027 694.5,336.5C 698.4,346.24 704.734,354.074 713.5,360C 728.33,365.588 742.997,371.421 757.5,377.5C 757.973,378.906 758.973,379.573 760.5,379.5C 762.05,380.441 763.716,381.107 765.5,381.5C 768.956,384.208 772.956,385.541 777.5,385.5C 781.138,385.447 783.138,387.113 783.5,390.5C 795.853,392.229 807.52,396.062 818.5,402C 816.999,403.252 815.332,404.252 813.5,405C 790.5,405.667 767.5,405.667 744.5,405C 735.512,397.173 725.179,392.006 713.5,389.5C 710.646,387.271 707.313,385.938 703.5,385.5C 702.041,385.567 700.708,385.234 699.5,384.5C 699.027,383.094 698.027,382.427 696.5,382.5C 690.943,381.053 685.61,379.053 680.5,376.5C 678.967,374.755 676.967,373.755 674.5,373.5C 673.391,373.443 672.391,373.11 671.5,372.5C 669.735,368.757 666.735,367.09 662.5,367.5C 654.004,363.503 646.837,357.836 641,350.5C 639.972,346.527 639.139,342.527 638.5,338.5C 638.245,336.033 637.245,334.033 635.5,332.5C 633.116,327.551 631.116,322.385 629.5,317C 629.164,315.97 628.497,315.47 627.5,315.5C 626.275,310.724 624.775,306.057 623,301.5C 622.617,300.944 622.117,300.611 621.5,300.5C 615.477,285.922 608.977,271.588 602,257.5C 596.81,251.312 591.31,245.479 585.5,240C 563.671,222.504 541.004,206.171 517.5,191C 512.943,188.975 508.61,186.808 504.5,184.5C 502.485,183.076 500.152,182.41 497.5,182.5C 493.773,181.652 490.107,180.652 486.5,179.5C 484.064,178.129 481.397,177.129 478.5,176.5C 468.667,174.831 460.5,170.165 454,162.5C 450.961,158.296 448.128,153.962 445.5,149.5C 443.623,143.877 441.29,138.544 438.5,133.5C 437.833,130.833 436.167,129.167 433.5,128.5C 430.603,127.871 427.936,126.871 425.5,125.5C 422.746,124.054 419.746,123.054 416.5,122.5C 416.167,122.5 415.833,122.5 415.5,122.5C 410.549,120.227 405.216,119.227 399.5,119.5C 397.5,119.167 395.5,118.833 393.5,118.5C 392.737,117.732 391.737,117.232 390.5,117C 378.5,116.333 366.5,116.333 354.5,117C 353.263,117.232 352.263,117.732 351.5,118.5C 350.5,118.5 349.5,118.5 348.5,118.5C 339.171,118.593 330.171,119.926 321.5,122.5C 321.167,122.5 320.833,122.5 320.5,122.5C 314.626,123.049 308.959,124.049 303.5,125.5C 294.312,126.288 285.312,127.622 276.5,129.5C 269.125,130.503 261.792,131.503 254.5,132.5C 249.482,132.613 244.482,132.947 239.5,133.5C 236.813,133.336 234.146,133.503 231.5,134C 230.584,134.278 229.918,134.778 229.5,135.5C 221.953,135.406 214.62,136.072 207.5,137.5C 201.158,137.334 194.825,137.5 188.5,138C 186.942,138.21 185.609,138.71 184.5,139.5C 172.833,139.5 161.167,139.5 149.5,139.5C 144.731,138.111 139.731,137.444 134.5,137.5C 132.708,137.634 131.042,137.301 129.5,136.5C 131.292,135.691 133.292,135.191 135.5,135C 130.167,134.667 124.833,134.333 119.5,134C 116.475,133.867 113.808,132.867 111.5,131C 106.252,129.555 100.918,128.722 95.5,128.5C 93.4214,128.029 91.4214,127.363 89.5,126.5C 87.9674,124.755 85.9674,123.755 83.5,123.5C 76.4871,120.825 69.8204,117.325 63.5,113C 57.304,107.634 51.304,102.134 45.5,96.5C 44.9202,94.2512 43.5869,92.5846 41.5,91.5C 40.0834,88.331 38.4168,85.331 36.5,82.5C 36.573,80.9731 35.9063,79.9731 34.5,79.5C 30.8598,72.2249 26.6931,65.2249 22,58.5C 20.7601,55.0935 21.9268,53.4269 25.5,53.5C 28.7263,54.4464 31.7263,55.9464 34.5,58C 40.7335,65.0021 47.0669,71.8355 53.5,78.5C 54.5846,80.5869 56.2512,81.9202 58.5,82.5C 62.4787,86.4942 67.1454,89.4942 72.5,91.5C 72.9731,92.9063 73.9731,93.573 75.5,93.5C 78.0067,94.8916 80.6733,95.8916 83.5,96.5C 85.0326,98.2451 87.0326,99.2451 89.5,99.5C 92.1123,100.371 94.779,101.037 97.5,101.5C 99.0326,103.245 101.033,104.245 103.5,104.5C 106.167,104.833 108.833,105.167 111.5,105.5C 116.451,107.773 121.784,108.773 127.5,108.5C 143.328,109.661 159.328,109.828 175.5,109C 184.065,108.951 192.398,108.118 200.5,106.5C 204.135,105.886 207.802,105.552 211.5,105.5C 212.167,105.5 212.833,105.5 213.5,105.5C 226.264,105.266 238.598,103.266 250.5,99.5C 252.042,98.6993 253.708,98.366 255.5,98.5C 263.51,97.4747 271.51,96.308 279.5,95C 280.416,94.7216 281.082,94.2216 281.5,93.5C 286.927,94.0184 291.927,93.0184 296.5,90.5C 299.187,90.6641 301.854,90.4974 304.5,90C 309.994,88.5985 315.327,87.0985 320.5,85.5C 320.833,85.5 321.167,85.5 321.5,85.5C 328.116,84.9027 334.449,83.5694 340.5,81.5C 349.975,80.7799 358.975,78.7799 367.5,75.5C 372.414,75.6382 377.081,74.9715 381.5,73.5C 382.568,72.5655 383.901,72.2322 385.5,72.5C 392.399,71.6475 399.066,70.3141 405.5,68.5C 405.833,68.5 406.167,68.5 406.5,68.5C 411.069,69.114 415.069,68.114 418.5,65.5C 420.297,64.2702 422.297,63.6036 424.5,63.5C 426.579,63.0293 428.579,62.3627 430.5,61.5C 434.048,60.2407 437.715,59.4074 441.5,59C 443.704,57.2501 445.704,55.4168 447.5,53.5C 448.514,52.3263 449.847,51.6596 451.5,51.5C 453.819,51.0075 455.819,50.0075 457.5,48.5C 463.261,45.4349 469.261,42.7683 475.5,40.5C 477.153,40.3404 478.486,39.6737 479.5,38.5C 481.262,38.6427 482.929,38.3094 484.5,37.5C 485.182,38.2427 485.849,38.9094 486.5,39.5 Z"/></g>
<g><path style="opacity:1" fill="#b37979" d="M 638.5,42.5 C 640.552,43.0527 640.885,44.0527 639.5,45.5C 639.443,44.391 639.11,43.391 638.5,42.5 Z"/></g>
<g><path style="opacity:1" fill="#d9b1b0" d="M 457.5,48.5 C 455.819,50.0075 453.819,51.0075 451.5,51.5C 452.911,49.461 454.911,48.461 457.5,48.5 Z"/></g>
<g><path style="opacity:1" fill="#a64a46" d="M 447.5,53.5 C 445.704,55.4168 443.704,57.2501 441.5,59C 437.715,59.4074 434.048,60.2407 430.5,61.5C 430.5,61.1667 430.5,60.8333 430.5,60.5C 436.276,58.4456 441.943,56.1122 447.5,53.5 Z"/></g>
<g><path style="opacity:1" fill="#cd9896" d="M 430.5,60.5 C 430.5,60.8333 430.5,61.1667 430.5,61.5C 428.579,62.3627 426.579,63.0293 424.5,63.5C 426.033,61.7549 428.033,60.7549 430.5,60.5 Z"/></g>
<g><path style="opacity:1" fill="#b3635f" d="M 418.5,65.5 C 415.069,68.114 411.069,69.114 406.5,68.5C 410.159,66.6578 414.159,65.6578 418.5,65.5 Z"/></g>
<g><path style="opacity:1" fill="#f0cccc" d="M 792.5,65.5 C 792.495,69.5341 792.162,73.5341 791.5,77.5C 791.5,77.8333 791.5,78.1667 791.5,78.5C 791.167,78.5 790.833,78.5 790.5,78.5C 790.438,73.9242 791.105,69.5909 792.5,65.5 Z"/></g>
<g><path style="opacity:1" fill="#c28180" d="M 405.5,68.5 C 399.066,70.3141 392.399,71.6475 385.5,72.5C 385.5,72.1667 385.5,71.8333 385.5,71.5C 392.081,70.1765 398.747,69.1765 405.5,68.5 Z"/></g>
<g><path style="opacity:1" fill="#e8cdcd" d="M 385.5,71.5 C 385.5,71.8333 385.5,72.1667 385.5,72.5C 383.901,72.2322 382.568,72.5655 381.5,73.5C 378.098,73.3424 374.764,73.6758 371.5,74.5C 371.611,73.8826 371.944,73.3826 372.5,73C 376.832,72.4167 381.165,71.9167 385.5,71.5 Z"/></g>
<g><path style="opacity:1" fill="#ad6361" d="M 795.5,55.5 C 794.033,62.0615 793.199,68.7282 793,75.5C 792.722,76.4158 792.222,77.0825 791.5,77.5C 792.162,73.5341 792.495,69.5341 792.5,65.5C 792.804,62.4781 793.304,59.4781 794,56.5C 794.383,55.944 794.883,55.6107 795.5,55.5 Z"/></g>
<g><path style="opacity:1" fill="#b86e6b" d="M 381.5,73.5 C 377.081,74.9715 372.414,75.6382 367.5,75.5C 368.568,74.5655 369.901,74.2322 371.5,74.5C 374.764,73.6758 378.098,73.3424 381.5,73.5 Z"/></g>
<g><path style="opacity:1" fill="#deb3b2" d="M 823.5,63.5 C 822.799,68.346 820.799,72.346 817.5,75.5C 819.323,71.3333 821.323,67.3333 823.5,63.5 Z"/></g>
<g><path style="opacity:1" fill="#ba6f6d" d="M 367.5,75.5 C 358.975,78.7799 349.975,80.7799 340.5,81.5C 340.918,80.7784 341.584,80.2784 342.5,80C 350.913,78.6832 359.246,77.1832 367.5,75.5 Z"/></g>
<g><path style="opacity:1" fill="#e0bbbb" d="M 53.5,78.5 C 55.7488,79.0798 57.4154,80.4131 58.5,82.5C 56.2512,81.9202 54.5846,80.5869 53.5,78.5 Z"/></g>
<g><path style="opacity:1" fill="#c78b8a" d="M 34.5,79.5 C 35.9063,79.9731 36.573,80.9731 36.5,82.5C 35.0937,82.0269 34.427,81.0269 34.5,79.5 Z"/></g>
<g><path style="opacity:1" fill="#b06563" d="M 790.5,78.5 C 790.833,78.5 791.167,78.5 791.5,78.5C 791.25,80.674 790.25,82.3406 788.5,83.5C 788.796,81.597 789.463,79.9303 790.5,78.5 Z"/></g>
<g><path style="opacity:1" fill="#dfb9b9" d="M 817.5,75.5 C 816.565,78.1128 816.398,80.7795 817,83.5C 818.481,84.4709 819.315,85.8042 819.5,87.5C 813.684,84.2543 813.017,80.2543 817.5,75.5 Z"/></g>
<g><path style="opacity:1" fill="#b86e6c" d="M 340.5,81.5 C 334.449,83.5694 328.116,84.9027 321.5,85.5C 321.918,84.7784 322.584,84.2784 323.5,84C 329.156,83.0254 334.823,82.192 340.5,81.5 Z"/></g>
<g><path style="opacity:1" fill="#fefdfd" d="M 675.5,85.5 C 684.796,93.6267 693.963,101.96 703,110.5C 703.499,115.155 703.666,119.821 703.5,124.5C 702.883,124.611 702.383,124.944 702,125.5C 701.501,129.486 701.334,133.486 701.5,137.5C 699.969,142.25 699.302,147.25 699.5,152.5C 689.755,155.97 680.089,159.637 670.5,163.5C 668.545,164.323 666.545,164.49 664.5,164C 655.27,155.265 645.937,146.765 636.5,138.5C 636.226,133.737 636.559,129.07 637.5,124.5C 639.031,119.75 639.698,114.75 639.5,109.5C 639.305,105.085 639.805,100.751 641,96.5C 642.356,95.6198 643.856,95.2865 645.5,95.5C 649.936,94.5856 653.936,92.919 657.5,90.5C 660.152,90.5905 662.485,89.9238 664.5,88.5C 668.11,87.2967 671.777,86.2967 675.5,85.5 Z"/></g>
<g><path style="opacity:1" fill="#d6a8a7" d="M 675.5,85.5 C 671.777,86.2967 668.11,87.2967 664.5,88.5C 666.385,86.6885 668.719,85.5218 671.5,85C 673.066,84.235 674.399,84.4017 675.5,85.5 Z"/></g>
<g><path style="opacity:1" fill="#b66866" d="M 320.5,85.5 C 315.327,87.0985 309.994,88.5985 304.5,90C 301.854,90.4974 299.187,90.6641 296.5,90.5C 296.842,89.6618 297.508,89.3284 298.5,89.5C 301.495,89.7062 304.162,89.0395 306.5,87.5C 311.15,86.7404 315.817,86.0738 320.5,85.5 Z"/></g>
<g><path style="opacity:1" fill="#dab3b1" d="M 306.5,87.5 C 304.162,89.0395 301.495,89.7062 298.5,89.5C 300.905,88.2318 303.572,87.5651 306.5,87.5 Z"/></g>
<g><path style="opacity:1" fill="#d9aeae" d="M 664.5,88.5 C 662.485,89.9238 660.152,90.5905 657.5,90.5C 659.515,89.0762 661.848,88.4095 664.5,88.5 Z"/></g>
<g><path style="opacity:1" fill="#daaead" d="M 821.5,88.5 C 823.749,89.0798 825.415,90.4131 826.5,92.5C 824.251,91.9202 822.585,90.5869 821.5,88.5 Z"/></g>
<g><path style="opacity:1" fill="#aa5351" d="M 563.5,89.5 C 569.13,90.2919 574.797,90.6252 580.5,90.5C 578.359,91.1633 576.025,91.4966 573.5,91.5C 569.859,91.6852 566.526,91.0186 563.5,89.5 Z"/></g>
<g><path style="opacity:1" fill="#a8504c" d="M 788.5,83.5 C 787.357,86.6839 786.691,90.0173 786.5,93.5C 785.167,93.5 783.833,93.5 782.5,93.5C 782.5,94.8333 782.5,96.1667 782.5,97.5C 781.5,97.5 780.5,97.5 779.5,97.5C 782.004,92.4854 785.004,87.8187 788.5,83.5 Z"/></g>
<g><path style="opacity:1" fill="#cb9595" d="M 72.5,91.5 C 74.0269,91.427 75.0269,92.0937 75.5,93.5C 73.9731,93.573 72.9731,92.9063 72.5,91.5 Z"/></g>
<g><path style="opacity:1" fill="#ab5551" d="M 296.5,90.5 C 291.927,93.0184 286.927,94.0184 281.5,93.5C 286.248,91.8625 291.248,90.8625 296.5,90.5 Z"/></g>
<g><path style="opacity:1" fill="#d8aead" d="M 657.5,90.5 C 653.936,92.919 649.936,94.5856 645.5,95.5C 649.064,93.081 653.064,91.4144 657.5,90.5 Z"/></g>
<g><path style="opacity:1" fill="#dfb7b8" d="M 41.5,91.5 C 43.5869,92.5846 44.9202,94.2512 45.5,96.5C 43.4131,95.4154 42.0798,93.7488 41.5,91.5 Z"/></g>
<g><path style="opacity:1" fill="#b56663" d="M 281.5,93.5 C 281.082,94.2216 280.416,94.7216 279.5,95C 271.51,96.308 263.51,97.4747 255.5,98.5C 263.91,96.206 272.577,94.5394 281.5,93.5 Z"/></g>
<g><path style="opacity:1" fill="#d5a8a8" d="M 83.5,96.5 C 85.9674,96.7549 87.9674,97.7549 89.5,99.5C 87.0326,99.2451 85.0326,98.2451 83.5,96.5 Z"/></g>
<g><path style="opacity:1" fill="#ca9695" d="M 542.5,97.5 C 544.027,97.427 545.027,98.0937 545.5,99.5C 543.973,99.573 542.973,98.9063 542.5,97.5 Z"/></g>
<g><path style="opacity:1" fill="#c0807f" d="M 779.5,97.5 C 778.92,99.7488 777.587,101.415 775.5,102.5C 776.08,100.251 777.413,98.5846 779.5,97.5 Z"/></g>
<g><path style="opacity:1" fill="#cc9896" d="M 97.5,101.5 C 99.9674,101.755 101.967,102.755 103.5,104.5C 101.033,104.245 99.0326,103.245 97.5,101.5 Z"/></g>
<g><path style="opacity:1" fill="#a44441" d="M 250.5,99.5 C 238.598,103.266 226.264,105.266 213.5,105.5C 218.167,104.5 222.833,103.5 227.5,102.5C 235.198,101.58 242.864,100.58 250.5,99.5 Z"/></g>
<g><path style="opacity:1" fill="#e3c5c5" d="M 227.5,102.5 C 222.833,103.5 218.167,104.5 213.5,105.5C 212.833,105.5 212.167,105.5 211.5,105.5C 211.611,104.883 211.944,104.383 212.5,104C 217.464,103.088 222.464,102.588 227.5,102.5 Z"/></g>
<g><path style="opacity:1" fill="#d7a9a8" d="M 706.5,103.5 C 709.089,104.419 711.089,106.086 712.5,108.5C 709.911,107.581 707.911,105.914 706.5,103.5 Z"/></g>
<g><path style="opacity:1" fill="#cb9493" d="M 111.5,105.5 C 117.037,106.087 122.37,107.087 127.5,108.5C 121.784,108.773 116.451,107.773 111.5,105.5 Z"/></g>
<g><path style="opacity:1" fill="#ddb9b9" d="M 200.5,106.5 C 192.398,108.118 184.065,108.951 175.5,109C 159.328,109.828 143.328,109.661 127.5,108.5C 151.857,108.552 176.19,107.885 200.5,106.5 Z"/></g>
<g><path style="opacity:1" fill="#eecfcf" d="M 472.5,109.5 C 469.5,111.5 466.5,113.5 463.5,115.5C 465.294,113.203 467.294,111.037 469.5,109C 470.749,108.26 471.749,108.427 472.5,109.5 Z"/></g>
<g><path style="opacity:1" fill="#d6a7a6" d="M 850.5,113.5 C 854.1,115.43 857.1,118.097 859.5,121.5C 855.9,119.57 852.9,116.903 850.5,113.5 Z"/></g>
<g><path style="opacity:1" fill="#b46463" d="M 393.5,118.5 C 392.167,118.5 390.833,118.5 389.5,118.5C 376.98,117.236 364.314,117.236 351.5,118.5C 352.263,117.732 353.263,117.232 354.5,117C 366.5,116.333 378.5,116.333 390.5,117C 391.737,117.232 392.737,117.732 393.5,118.5 Z"/></g>
<g><path style="opacity:1" fill="#ead3d3" d="M 389.5,118.5 C 375.817,118.355 362.15,118.688 348.5,119.5C 348.5,119.167 348.5,118.833 348.5,118.5C 349.5,118.5 350.5,118.5 351.5,118.5C 364.314,117.236 376.98,117.236 389.5,118.5 Z"/></g>
<g><path style="opacity:1" fill="#d6aaaa" d="M 348.5,118.5 C 348.5,118.833 348.5,119.167 348.5,119.5C 339.412,120.117 330.412,121.117 321.5,122.5C 330.171,119.926 339.171,118.593 348.5,118.5 Z"/></g>
<g><path style="opacity:1" fill="#bf7c7a" d="M 399.5,119.5 C 405.216,119.227 410.549,120.227 415.5,122.5C 409.963,121.913 404.63,120.913 399.5,119.5 Z"/></g>
<g><path style="opacity:1" fill="#e8c1c1" d="M 639.5,109.5 C 639.698,114.75 639.031,119.75 637.5,124.5C 637.444,119.269 638.111,114.269 639.5,109.5 Z"/></g>
<g><path style="opacity:1" fill="#dab3b3" d="M 320.5,122.5 C 315.17,124.667 309.503,125.667 303.5,125.5C 308.959,124.049 314.626,123.049 320.5,122.5 Z"/></g>
<g><path style="opacity:1" fill="#d4a5a5" d="M 416.5,122.5 C 419.746,123.054 422.746,124.054 425.5,125.5C 422.008,125.554 419.008,124.554 416.5,122.5 Z"/></g>
<g><path style="opacity:1" fill="#bf7e7c" d="M 83.5,123.5 C 85.9674,123.755 87.9674,124.755 89.5,126.5C 87.0326,126.245 85.0326,125.245 83.5,123.5 Z"/></g>
<g><path style="opacity:1" fill="#c38280" d="M 739.5,126.5 C 743.402,128.417 747.402,128.751 751.5,127.5C 750.508,129.026 749.008,129.693 747,129.5C 743.956,129.548 741.456,128.548 739.5,126.5 Z"/></g>
<g><path style="opacity:1" fill="#a74b46" d="M 95.5,128.5 C 100.918,128.722 106.252,129.555 111.5,131C 113.808,132.867 116.475,133.867 119.5,134C 124.833,134.333 130.167,134.667 135.5,135C 133.292,135.191 131.292,135.691 129.5,136.5C 123.039,136.069 116.706,135.069 110.5,133.5C 106.406,131.721 102.073,130.388 97.5,129.5C 96.5084,129.672 95.8417,129.338 95.5,128.5 Z"/></g>
<g><path style="opacity:1" fill="#d2a2a0" d="M 303.5,125.5 C 294.783,127.746 285.783,129.079 276.5,129.5C 285.312,127.622 294.312,126.288 303.5,125.5 Z"/></g>
<g><path style="opacity:1" fill="#b66b69" d="M 433.5,128.5 C 436.167,129.167 437.833,130.833 438.5,133.5C 436.5,132.167 434.833,130.5 433.5,128.5 Z"/></g>
<g><path style="opacity:1" fill="#e7cdcd" d="M 97.5,129.5 C 102.073,130.388 106.406,131.721 110.5,133.5C 105.605,133.534 101.272,132.2 97.5,129.5 Z"/></g>
<g><path style="opacity:1" fill="#ca9291" d="M 703.5,124.5 C 703.23,129.028 702.563,133.361 701.5,137.5C 701.334,133.486 701.501,129.486 702,125.5C 702.383,124.944 702.883,124.611 703.5,124.5 Z"/></g>
<g><path style="opacity:1" fill="#be7775" d="M 239.5,133.5 C 236.373,134.581 233.04,135.247 229.5,135.5C 229.918,134.778 230.584,134.278 231.5,134C 234.146,133.503 236.813,133.336 239.5,133.5 Z"/></g>
<g><path style="opacity:1" fill="#ead2d1" d="M 254.5,132.5 C 239.173,135.975 223.507,137.642 207.5,137.5C 214.62,136.072 221.953,135.406 229.5,135.5C 233.04,135.247 236.373,134.581 239.5,133.5C 244.482,132.947 249.482,132.613 254.5,132.5 Z"/></g>
<g><path style="opacity:1" fill="#d2a3a2" d="M 134.5,137.5 C 139.731,137.444 144.731,138.111 149.5,139.5C 144.269,139.556 139.269,138.889 134.5,137.5 Z"/></g>
<g><path style="opacity:1" fill="#cb9593" d="M 207.5,137.5 C 200.011,138.513 192.344,139.18 184.5,139.5C 185.609,138.71 186.942,138.21 188.5,138C 194.825,137.5 201.158,137.334 207.5,137.5 Z"/></g>
<g><path style="opacity:1" fill="#fefdfd" d="M 633.5,141.5 C 633.833,141.5 634.167,141.5 634.5,141.5C 643.438,149.937 652.272,158.604 661,167.5C 661.388,170.849 661.221,174.183 660.5,177.5C 658.588,184.566 657.588,191.9 657.5,199.5C 657.817,202.572 657.484,205.572 656.5,208.5C 645.104,213.466 633.438,217.299 621.5,220C 612.03,211.531 602.863,202.697 594,193.5C 594.446,181.147 595.446,168.814 597,156.5C 597.21,154.942 597.71,153.609 598.5,152.5C 603.653,151.595 608.653,150.095 613.5,148C 614.056,147.617 614.389,147.117 614.5,146.5C 620.9,145.032 627.234,143.366 633.5,141.5 Z"/></g>
<g><path style="opacity:1" fill="#e6c9c8" d="M 633.5,141.5 C 627.234,143.366 620.9,145.032 614.5,146.5C 619.028,144.596 623.694,142.763 628.5,141C 630.387,140.22 632.054,140.387 633.5,141.5 Z"/></g>
<g><path style="opacity:1" fill="#ae5756" d="M 812.5,144.5 C 807.438,144.274 802.438,144.608 797.5,145.5C 797.611,144.883 797.944,144.383 798.5,144C 803.352,143.185 808.019,143.352 812.5,144.5 Z"/></g>
<g><path style="opacity:1" fill="#d09a99" d="M 822.5,145.5 C 827.5,145.498 832.167,146.498 836.5,148.5C 831.385,148.416 826.718,147.416 822.5,145.5 Z"/></g>
<g><path style="opacity:1" fill="#e3b5b4" d="M 701.5,137.5 C 701.556,142.731 700.889,147.731 699.5,152.5C 699.302,147.25 699.969,142.25 701.5,137.5 Z"/></g>
<g><path style="opacity:1" fill="#b56764" d="M 836.5,148.5 C 839.871,149.323 843.204,150.489 846.5,152C 849.482,152.498 852.482,152.665 855.5,152.5C 853.545,154.326 851.212,154.826 848.5,154C 844.02,152.922 840.02,151.089 836.5,148.5 Z"/></g>
<g><path style="opacity:1" fill="#e8cccb" d="M 614.5,146.5 C 614.389,147.117 614.056,147.617 613.5,148C 608.653,150.095 603.653,151.595 598.5,152.5C 603.525,149.932 608.859,147.932 614.5,146.5 Z"/></g>
<g><path style="opacity:1" fill="#983632" d="M 636.5,138.5 C 645.937,146.765 655.27,155.265 664.5,164C 666.545,164.49 668.545,164.323 670.5,163.5C 668.572,165.113 666.238,166.113 663.5,166.5C 662.919,171.724 661.919,176.724 660.5,181.5C 660.5,180.167 660.5,178.833 660.5,177.5C 661.221,174.183 661.388,170.849 661,167.5C 652.272,158.604 643.438,149.937 634.5,141.5C 636.048,141.179 636.715,140.179 636.5,138.5 Z"/></g>
<g><path style="opacity:1" fill="#d8a9a8" d="M 783.5,159.5 C 781.57,163.1 778.903,166.1 775.5,168.5C 777.43,164.9 780.097,161.9 783.5,159.5 Z"/></g>
<g><path style="opacity:1" fill="#d5a6a6" d="M 478.5,176.5 C 481.397,177.129 484.064,178.129 486.5,179.5C 483.284,179.655 480.617,178.655 478.5,176.5 Z"/></g>
<g><path style="opacity:1" fill="#ba7371" d="M 497.5,182.5 C 500.152,182.41 502.485,183.076 504.5,184.5C 501.848,184.59 499.515,183.924 497.5,182.5 Z"/></g>
<g><path style="opacity:1" fill="#f0cdcd" d="M 660.5,177.5 C 660.5,178.833 660.5,180.167 660.5,181.5C 659.976,187.697 658.976,193.697 657.5,199.5C 657.588,191.9 658.588,184.566 660.5,177.5 Z"/></g>
<g><path style="opacity:1" fill="#e2bcbb" d="M 748.5,189.5 C 745.167,194.833 740.833,199.167 735.5,202.5C 739.5,197.833 743.833,193.5 748.5,189.5 Z"/></g>
<g><path style="opacity:1" fill="#e0bebf" d="M 696.5,202.5 C 700.219,203.72 704.053,204.387 708,204.5C 715.814,203.705 723.647,203.371 731.5,203.5C 723.842,204.415 716.008,205.082 708,205.5C 704.43,205.456 700.93,204.956 697.5,204C 696.944,203.617 696.611,203.117 696.5,202.5 Z"/></g>
<g><path style="opacity:1" fill="#bb7776" d="M 687.5,202.5 C 686.38,206.472 686.38,210.472 687.5,214.5C 685.621,211.144 685.121,207.477 686,203.5C 686.383,202.944 686.883,202.611 687.5,202.5 Z"/></g>
<g><path style="opacity:1" fill="#fefdfd" d="M 685.5,250.5 C 684.732,251.263 684.232,252.263 684,253.5C 683.502,256.817 683.335,260.15 683.5,263.5C 683.258,269.953 682.258,276.286 680.5,282.5C 669.782,286.795 658.949,290.795 648,294.5C 637.688,285.855 627.688,276.855 618,267.5C 618.575,260.547 619.075,253.547 619.5,246.5C 620.449,242.343 621.116,238.01 621.5,233.5C 621.232,230.881 621.565,228.381 622.5,226C 632.577,222.53 642.577,218.863 652.5,215C 654.167,214.333 655.833,214.333 657.5,215C 666.667,223.5 675.833,232 685,240.5C 685.498,243.817 685.665,247.15 685.5,250.5 Z"/></g>
<g><path style="opacity:1" fill="#ce9b9a" d="M 688.5,221.5 C 690.41,224.452 691.41,227.786 691.5,231.5C 689.723,228.495 688.723,225.162 688.5,221.5 Z"/></g>
<g><path style="opacity:1" fill="#a55d5b" d="M 621.5,233.5 C 621.116,238.01 620.449,242.343 619.5,246.5C 619.335,242.818 619.501,239.152 620,235.5C 620.278,234.584 620.778,233.918 621.5,233.5 Z"/></g>
<g><path style="opacity:1" fill="#b66f6d" d="M 693.5,239.5 C 695.074,241.102 695.741,243.102 695.5,245.5C 693.926,243.898 693.259,241.898 693.5,239.5 Z"/></g>
<g><path style="opacity:1" fill="#e0b1b0" d="M 685.5,250.5 C 685.116,255.01 684.449,259.343 683.5,263.5C 683.335,260.15 683.502,256.817 684,253.5C 684.232,252.263 684.732,251.263 685.5,250.5 Z"/></g>
<g><path style="opacity:1" fill="#a8534f" d="M 696.5,249.5 C 698.025,252.583 699.025,255.916 699.5,259.5C 698.466,258.313 697.133,257.48 695.5,257C 696.435,254.619 696.768,252.119 696.5,249.5 Z"/></g>
<g><path style="opacity:1" fill="#b06462" d="M 699.5,259.5 C 701.451,265.923 702.785,272.589 703.5,279.5C 700.782,273.245 699.449,266.578 699.5,259.5 Z"/></g>
<g><path style="opacity:1" fill="#e2c0bf" d="M 621.5,300.5 C 622.117,300.611 622.617,300.944 623,301.5C 624.775,306.057 626.275,310.724 627.5,315.5C 624.587,310.902 622.587,305.902 621.5,300.5 Z"/></g>
<g><path style="opacity:1" fill="#b76f6f" d="M 679.5,315.5 C 681.587,316.585 682.92,318.251 683.5,320.5C 681.413,319.415 680.08,317.749 679.5,315.5 Z"/></g>
<g><path style="opacity:1" fill="#ce9897" d="M 692.5,333.5 C 693.906,333.973 694.573,334.973 694.5,336.5C 693.094,336.027 692.427,335.027 692.5,333.5 Z"/></g>
<g><path style="opacity:1" fill="#bf7f7d" d="M 635.5,332.5 C 637.245,334.033 638.245,336.033 638.5,338.5C 636.755,336.967 635.755,334.967 635.5,332.5 Z"/></g>
<g><path style="opacity:1" fill="#ae5854" d="M 662.5,367.5 C 666.735,367.09 669.735,368.757 671.5,372.5C 668.008,371.59 665.008,369.924 662.5,367.5 Z"/></g>
<g><path style="opacity:1" fill="#bb7875" d="M 674.5,373.5 C 676.967,373.755 678.967,374.755 680.5,376.5C 678.033,376.245 676.033,375.245 674.5,373.5 Z"/></g>
<g><path style="opacity:1" fill="#c58887" d="M 757.5,377.5 C 759.027,377.427 760.027,378.094 760.5,379.5C 758.973,379.573 757.973,378.906 757.5,377.5 Z"/></g>
<g><path style="opacity:1" fill="#d9afae" d="M 765.5,381.5 C 769.759,382.309 773.759,383.642 777.5,385.5C 772.956,385.541 768.956,384.208 765.5,381.5 Z"/></g>
<g><path style="opacity:1" fill="#cf9e9c" d="M 696.5,382.5 C 698.027,382.427 699.027,383.094 699.5,384.5C 697.973,384.573 696.973,383.906 696.5,382.5 Z"/></g>
<g><path style="opacity:1" fill="#d3a5a4" d="M 703.5,385.5 C 707.313,385.938 710.646,387.271 713.5,389.5C 710.546,388.572 707.546,387.739 704.5,387C 703.944,386.617 703.611,386.117 703.5,385.5 Z"/></g>
</svg>
